<?xml version="1.0" encoding="iso-8859-1"?>
<!-- Uploaded to: SVG Repo, www.svgrepo.com, Generator: SVG Repo Mixer Tools -->
<svg fill="#000000" height="800px" width="800px" version="1.1" id="Layer_1" xmlns="http://www.w3.org/2000/svg" xmlns:xlink="http://www.w3.org/1999/xlink" 
	 viewBox="0 0 512.022 512.022" xml:space="preserve">
<g>
	<g>
		<path d="M510.475,402.592l-25.109-141.291c-11.392-64.171-63.637-110.741-124.267-110.741h-9.579
			c-14.101,0-27.669,4.48-39.317,12.971c-8.853,6.443-12.843,7.147-14.123,7.147h-20.736V85.344c0-7.765,4.629-14.08,10.283-14.08
			c5.995,0,11.051,6.443,11.051,14.08c0,29.397,23.915,53.333,53.333,53.333c29.419,0,53.333-23.936,53.333-53.333v-64
			c0-11.776-9.536-21.333-21.333-21.333c-11.797,0-21.333,9.557-21.333,21.333v64c0,5.888-4.8,10.667-10.667,10.667
			c-5.867,0-10.667-4.779-10.667-10.667c0-31.296-24.085-56.747-53.717-56.747c-29.675,0-52.949,24.917-52.949,56.747v85.333
			h-20.736c-1.28,0-5.269-0.704-14.144-7.168c-11.627-8.469-25.195-12.949-39.296-12.949h-9.579
			c-60.629,0-112.875,46.571-124.267,110.741L1.547,402.592c-5.056,28.501,2.411,57.259,20.501,78.848
			c16.299,19.435,39.637,30.571,64.043,30.571c19.136,0,36.736-10.155,47.083-27.136l19.072-31.253
			c9.813-16.128,24.128-26.944,35.627-26.944H324.15c11.499,0,25.813,10.816,35.648,26.944l19.051,31.253
			c10.347,16.981,27.947,27.136,47.083,27.136c24.405,0,47.744-11.136,64.043-30.571
			C508.064,459.851,515.531,431.094,510.475,402.592z M149.344,234.678c11.776,0,21.333,9.557,21.333,21.333
			c0,11.776-9.557,21.333-21.333,21.333s-21.333-9.557-21.333-21.333C128.011,244.235,137.568,234.678,149.344,234.678z
			 M106.678,320.011c-11.776,0-21.333-9.557-21.333-21.333s9.557-21.333,21.333-21.333s21.333,9.557,21.333,21.333
			S118.454,320.011,106.678,320.011z M149.344,362.678c-11.776,0-21.333-9.557-21.333-21.333c0-11.776,9.557-21.333,21.333-21.333
			s21.333,9.557,21.333,21.333C170.678,353.12,161.12,362.678,149.344,362.678z M192.011,320.011
			c-11.776,0-21.333-9.557-21.333-21.333s9.557-21.333,21.333-21.333s21.333,9.557,21.333,21.333S203.787,320.011,192.011,320.011z
			 M405.344,320.011h-21.333v21.333c0,11.776-9.536,21.333-21.333,21.333s-21.333-9.557-21.333-21.333v-21.333h-21.333
			c-11.797,0-21.333-9.557-21.333-21.333s9.536-21.333,21.333-21.333h21.333v-21.333c0-11.776,9.536-21.333,21.333-21.333
			s21.333,9.557,21.333,21.333v21.333h21.333c11.797,0,21.333,9.557,21.333,21.333S417.142,320.011,405.344,320.011z"/>
	</g>
</g>
</svg>